<?xml version="1.0" encoding="UTF-8" standalone="no"?>
<svg width="17px" height="20px" viewBox="0 0 17 20" version="1.1" xmlns="http://www.w3.org/2000/svg" xmlns:xlink="http://www.w3.org/1999/xlink" xmlns:sketch="http://www.bohemiancoding.com/sketch/ns">
    <!-- Generator: sketchtool 3.5.2 (25235) - http://www.bohemiancoding.com/sketch -->
    <title>Fill 113</title>
    <desc>Created with sketchtool.</desc>
    <defs></defs>
    <g id="Startsida" stroke="none" stroke-width="1" fill="none" fill-rule="evenodd" sketch:type="MSPage">
        <g id="Startsida-" sketch:type="MSArtboardGroup" transform="translate(-251.000000, -464.000000)" stroke="#235D71" stroke-width="0.4" fill="#235D71">
            <path d="M256.338362,465.656532 L257.91929,465.656532 C258.610399,465.656532 259.172391,466.226401 259.172391,466.926264 L259.172391,478.015086 L256.326544,475.197251 C256.197864,475.069446 255.9904,475.070322 255.863033,475.19944 C255.735228,475.328558 255.736103,475.536022 255.865221,475.663389 L259.266931,479.03271 C259.331271,479.096175 259.414432,479.127688 259.49803,479.127688 C259.581629,479.127688 259.665227,479.096175 259.72913,479.03271 L263.130402,475.663389 C263.25952,475.536022 263.259957,475.328558 263.13259,475.19944 C263.005223,475.07076 262.797759,475.069446 262.668641,475.197251 L259.828922,478.009833 L259.828922,466.926264 C259.828922,465.864433 258.972367,465 257.91929,465 L256.338362,465 C256.156721,465 256.010096,465.147063 256.010096,465.328266 C256.010096,465.509469 256.156721,465.656532 256.338362,465.656532 L256.338362,465.656532 Z M266.671734,469.092819 L261.58799,469.092819 C261.407225,469.092819 261.259724,469.239882 261.259724,469.421085 C261.259724,469.602288 261.407225,469.749351 261.58799,469.749351 L266.343468,469.749351 L266.343468,482.262846 L252.656532,482.262846 L252.656532,469.749351 L257.39494,469.749351 C257.576143,469.749351 257.723206,469.602288 257.723206,469.421085 C257.723206,469.239882 257.576143,469.092819 257.39494,469.092819 L252.328266,469.092819 C252.147063,469.092819 252,469.239882 252,469.421085 L252,482.591112 C252,482.772315 252.147063,482.919378 252.328266,482.919378 L266.671734,482.919378 C266.852937,482.919378 267,482.772315 267,482.591112 L267,469.421085 C267,469.239882 266.852937,469.092819 266.671734,469.092819 L266.671734,469.092819 Z" id="Fill-113" sketch:type="MSShapeGroup"></path>
        </g>
    </g>
</svg>